<svg width="186" height="223" viewBox="0 0 186 223" fill="none" xmlns="http://www.w3.org/2000/svg">
<path d="M157.396 172.48C157.268 169.779 156.504 167.147 155.167 164.798C153.829 162.448 151.956 160.448 149.7 158.959C147.458 157.641 145.435 157.584 144.002 158.52L138.744 161.478L149.78 180.511L154.992 177.553C156.448 176.755 157.373 175.01 157.396 172.48Z" fill="#37474F"/>
<path d="M144.233 162.055C146.487 163.547 148.358 165.549 149.695 167.898C151.032 170.246 151.797 172.877 151.93 175.576C151.93 180.545 148.394 182.51 144.118 180.025C141.864 178.533 139.994 176.532 138.657 174.183C137.32 171.834 136.554 169.204 136.421 166.504C136.456 161.535 139.958 159.548 144.233 162.055Z" fill="#455A64"/>
<path d="M141.552 169.509C141.552 167.568 142.708 166.678 144.199 167.533C144.999 168.111 145.651 168.87 146.103 169.747C146.555 170.625 146.793 171.597 146.799 172.583C146.799 174.525 145.643 175.403 144.152 174.56C143.356 173.978 142.706 173.219 142.254 172.342C141.803 171.466 141.563 170.496 141.552 169.509Z" fill="#263238"/>
<path opacity="0.15" d="M151.93 175.577C151.904 173.792 151.543 172.028 150.867 170.376L137.519 162.622C136.766 163.774 136.386 165.13 136.433 166.505C136.433 166.563 136.433 166.621 136.433 166.69L151.918 175.681C151.918 175.681 151.93 175.611 151.93 175.577Z" fill="black"/>
<path d="M102.064 214.764C99.2405 214.979 96.4086 214.47 93.8363 213.285L21.0316 171.324C16.6286 169.105 11.6825 163.35 11.3705 157.896L9.14014 105.996L13.1964 105.765L15.4383 157.676C15.6463 161.374 19.5177 166.02 22.8459 167.684L95.7084 209.656C97.6665 210.473 99.7847 210.834 101.903 210.712C104.021 210.59 106.084 209.988 107.935 208.951L156.471 180.962C157.627 180.199 158.309 179.286 158.263 178.512C158.216 177.738 157.488 176.975 156.252 176.351L78.2584 131.073C73.867 128.866 68.944 123.1 68.632 117.645L67.5457 88.8582L71.602 88.6387L72.6883 117.414C72.8963 121.135 76.7676 125.769 80.0843 127.433L158.078 172.722C160.678 174.028 162.18 176.004 162.319 178.281C162.458 180.558 161.163 182.765 158.702 184.36L110.165 212.349C107.714 213.83 104.926 214.661 102.064 214.764Z" fill="#593A00"/>
<path d="M88.9827 213.597C88.8547 210.896 88.0908 208.264 86.7534 205.915C85.416 203.565 83.5428 201.565 81.2862 200.076C79.0443 198.758 77.0219 198.689 75.6005 199.637L70.3308 202.595L81.3671 221.628L86.579 218.67C88.012 217.873 88.9827 216.127 88.9827 213.597Z" fill="#37474F"/>
<path d="M75.7968 203.173C78.055 204.663 79.9292 206.665 81.2667 209.017C82.6041 211.368 83.3671 214.003 83.4933 216.705C83.4933 221.663 79.9687 223.639 75.6813 221.143C73.4281 219.651 71.5581 217.65 70.2229 215.301C68.8877 212.952 68.1249 210.321 67.9963 207.622C68.031 202.664 71.521 200.642 75.7968 203.173Z" fill="#455A64"/>
<path d="M73.116 210.627C73.116 208.685 74.2716 207.795 75.7624 208.651C76.5637 209.227 77.2171 209.985 77.6691 210.863C78.121 211.741 78.3587 212.713 78.3625 213.701C78.3625 215.631 77.2069 216.52 75.7277 215.665C74.9278 215.089 74.2746 214.333 73.8209 213.457C73.3672 212.582 73.1257 211.612 73.116 210.627Z" fill="#263238"/>
<path d="M35.1534 182.568C35.031 179.869 34.2734 177.236 32.9421 174.885C31.6107 172.534 29.7433 170.53 27.4916 169.036C25.2381 167.718 23.2273 167.649 21.7943 168.585L16.5247 171.532L27.5263 190.588L32.7497 187.63C34.2058 186.844 35.1303 185.099 35.1534 182.568Z" fill="#37474F"/>
<path d="M22.014 172.133C24.2604 173.622 26.1253 175.619 27.4583 177.961C28.7912 180.304 29.5547 182.927 29.6874 185.619C29.6874 190.577 26.1396 192.553 21.8637 190.045C19.612 188.551 17.7446 186.547 16.4133 184.196C15.0819 181.844 14.3243 179.212 14.2019 176.513C14.2366 171.59 17.7381 169.614 22.014 172.133Z" fill="#455A64"/>
<path d="M19.3213 179.564C19.3213 177.634 20.4769 176.744 21.9677 177.599C22.7663 178.178 23.4178 178.937 23.8694 179.814C24.3211 180.691 24.5603 181.662 24.5678 182.649C24.5678 184.591 23.4122 185.469 21.9099 184.625C21.1145 184.041 20.4663 183.279 20.0169 182.401C19.5675 181.522 19.3293 180.55 19.3213 179.564Z" fill="#263238"/>
<path d="M0.438238 43.1065C-0.251349 40.4632 -0.124765 37.673 0.801365 35.1029C1.72749 32.5329 3.40979 30.3033 5.62701 28.7074L54.0595 1.33051C58.4624 -1.55857 63.3045 0.452222 64.83 5.47921L68.1928 16.3768L64.8646 18.3183L61.2475 7.30511C61.1003 6.71622 60.809 6.17314 60.3999 5.72469C59.9908 5.27624 59.4767 4.93647 58.9037 4.73594C58.3308 4.53541 57.717 4.4804 57.1175 4.57585C56.5181 4.6713 55.9517 4.91421 55.4694 5.28276L8.30808 31.92C6.89535 32.9558 5.82022 34.3859 5.21779 36.0308C4.61535 37.6757 4.51246 39.4619 4.92207 41.1651L7.76493 51.6236L3.80111 53.9348L0.438238 43.1065Z" fill="#455A64"/>
<path d="M75.323 95.6182L10.261 133.188L105.346 188.08L170.408 150.511L75.323 95.6182Z" fill="#1397D5"/>
<path opacity="0.5" d="M75.323 95.6182L10.261 133.188L105.346 188.08L170.408 150.511L75.323 95.6182Z" fill="black"/>
<path d="M3.80103 54.0045L68.1928 16.3887L75.323 95.6187L10.261 133.188L3.80103 54.0045Z" fill="#1397D5"/>
<path opacity="0.35" d="M3.80103 54.0045L68.1928 16.3887L75.323 95.6187L10.261 133.188L3.80103 54.0045Z" fill="black"/>
<path d="M68.1814 16.3887L75.3116 95.6187L170.397 150.511L185.42 84.0508L68.1814 16.3887ZM101.429 92.5678C100.056 92.9934 98.5702 92.861 97.294 92.1991C96.0178 91.5372 95.0538 90.3992 94.6107 89.0316L78.8941 48.2494C78.5484 47.6065 78.3438 46.8972 78.294 46.1689C78.2443 45.4407 78.3505 44.7102 78.6056 44.0262C78.8607 43.3423 79.2588 42.7206 79.7733 42.2028C80.2878 41.685 80.9069 41.2829 81.5892 41.0234C82.2715 40.7639 83.0013 40.653 83.7298 40.6981C84.4584 40.7431 85.169 40.9431 85.8141 41.2847C86.4592 41.6263 87.0241 42.1016 87.4708 42.6789C87.9176 43.2562 88.2361 43.9221 88.4049 44.6323L104.122 85.4145C104.7 86.7204 104.744 88.2013 104.242 89.5389C103.741 90.8765 102.735 91.964 101.44 92.5678H101.429ZM131.117 106.528C129.745 106.96 128.258 106.832 126.981 106.172C125.703 105.511 124.739 104.372 124.299 103.003L108.628 62.221C108.283 61.5798 108.079 60.8726 108.028 60.1463C107.978 59.42 108.082 58.6912 108.335 58.0084C108.588 57.3256 108.983 56.7044 109.494 56.1861C110.006 55.6678 110.621 55.2643 111.301 55.0023C111.98 54.7404 112.707 54.626 113.434 54.6667C114.161 54.7075 114.871 54.9025 115.517 55.2388C116.163 55.5751 116.729 56.0449 117.18 56.6172C117.63 57.1894 117.953 57.8509 118.128 58.5576L133.844 99.3398C134.435 100.653 134.48 102.148 133.971 103.495C133.462 104.842 132.44 105.933 131.129 106.528H131.117ZM160.805 120.499C159.441 120.934 157.961 120.814 156.684 120.166C155.408 119.517 154.439 118.391 153.987 117.033L138.282 76.2503C137.946 75.6112 137.749 74.9081 137.703 74.1874C137.658 73.4666 137.766 72.7444 138.02 72.0683C138.274 71.3922 138.668 70.7774 139.176 70.2643C139.684 69.7513 140.295 69.3515 140.969 69.0914C141.643 68.8313 142.364 68.7166 143.085 68.755C143.806 68.7934 144.511 68.9839 145.153 69.314C145.796 69.6442 146.361 70.1065 146.812 70.6706C147.263 71.2346 147.589 71.8878 147.77 72.587L163.486 113.369C164.062 114.671 164.105 116.146 163.606 117.479C163.107 118.812 162.106 119.896 160.817 120.499H160.805Z" fill="#1397D5"/>
<path opacity="0.23" d="M68.1814 16.3887L75.3116 95.6187L170.397 150.511L185.42 84.0508L68.1814 16.3887ZM101.429 92.5678C100.056 92.9934 98.5702 92.861 97.294 92.1991C96.0178 91.5372 95.0538 90.3992 94.6107 89.0316L78.8941 48.2494C78.5484 47.6065 78.3438 46.8972 78.294 46.1689C78.2443 45.4407 78.3505 44.7102 78.6056 44.0262C78.8607 43.3423 79.2588 42.7206 79.7733 42.2028C80.2878 41.685 80.9069 41.2829 81.5892 41.0234C82.2715 40.7639 83.0013 40.653 83.7298 40.6981C84.4584 40.7431 85.169 40.9431 85.8141 41.2847C86.4592 41.6263 87.0241 42.1016 87.4708 42.6789C87.9176 43.2562 88.2361 43.9221 88.4049 44.6323L104.122 85.4145C104.7 86.7204 104.744 88.2013 104.242 89.5389C103.741 90.8765 102.735 91.964 101.44 92.5678H101.429ZM131.117 106.528C129.745 106.96 128.258 106.832 126.981 106.172C125.703 105.511 124.739 104.372 124.299 103.003L108.628 62.221C108.283 61.5798 108.079 60.8726 108.028 60.1463C107.978 59.42 108.082 58.6912 108.335 58.0084C108.588 57.3256 108.983 56.7044 109.494 56.1861C110.006 55.6678 110.621 55.2643 111.301 55.0023C111.98 54.7404 112.707 54.626 113.434 54.6667C114.161 54.7075 114.871 54.9025 115.517 55.2388C116.163 55.5751 116.729 56.0449 117.18 56.6172C117.63 57.1894 117.953 57.8509 118.128 58.5576L133.844 99.3398C134.435 100.653 134.48 102.148 133.971 103.495C133.462 104.842 132.44 105.933 131.129 106.528H131.117ZM160.805 120.499C159.441 120.934 157.961 120.814 156.684 120.166C155.408 119.517 154.439 118.391 153.987 117.033L138.282 76.2503C137.946 75.6112 137.749 74.9081 137.703 74.1874C137.658 73.4666 137.766 72.7444 138.02 72.0683C138.274 71.3922 138.668 70.7774 139.176 70.2643C139.684 69.7513 140.295 69.3515 140.969 69.0914C141.643 68.8313 142.364 68.7166 143.085 68.755C143.806 68.7934 144.511 68.9839 145.153 69.314C145.796 69.6442 146.361 70.1065 146.812 70.6706C147.263 71.2346 147.589 71.8878 147.77 72.587L163.486 113.369C164.062 114.671 164.105 116.146 163.606 117.479C163.107 118.812 162.106 119.896 160.817 120.499H160.805Z" fill="black"/>
<path d="M3.80103 54.0039L10.261 133.188L105.346 188.08L120.369 121.631L3.80103 54.0039ZM41.3359 131.951C39.9628 132.377 38.4772 132.244 37.201 131.582C35.9249 130.921 34.9608 129.783 34.5177 128.415L18.8127 87.6328C18.4743 86.9931 18.2753 86.2889 18.229 85.5667C18.1826 84.8445 18.2899 84.1207 18.5437 83.443C18.7975 82.7653 19.1922 82.1492 19.7016 81.6351C20.211 81.1211 20.8236 80.7209 21.4989 80.461C22.1743 80.201 22.8971 80.0872 23.6197 80.1271C24.3423 80.1669 25.0482 80.3595 25.6909 80.6921C26.3336 81.0247 26.8985 81.4898 27.3483 82.0567C27.7981 82.6236 28.1226 83.2795 28.3004 83.981L44.017 124.752C44.6101 126.063 44.6611 127.555 44.159 128.903C43.6568 130.252 42.6421 131.347 41.3359 131.951ZM71.0241 145.911C69.6525 146.344 68.1655 146.216 66.8879 145.555C65.6104 144.895 64.6462 143.756 64.2058 142.387L48.5355 101.604C48.1905 100.963 47.9859 100.256 47.9353 99.5296C47.8847 98.8033 47.9892 98.0746 48.242 97.3918C48.4948 96.709 48.8899 96.0878 49.4013 95.5695C49.9126 95.0512 50.5284 94.6477 51.2077 94.3857C51.887 94.1237 52.6143 94.0093 53.3412 94.0501C54.0681 94.0908 54.7781 94.2858 55.4238 94.6221C56.0696 94.9584 56.6364 95.4283 57.0866 96.0005C57.5367 96.5727 57.86 97.2342 58.0348 97.941L73.7398 138.723C74.3302 140.037 74.3759 141.531 73.8669 142.878C73.3579 144.226 72.3356 145.316 71.0241 145.911ZM100.712 159.883C99.3422 160.315 97.8567 160.187 96.5811 159.526C95.3054 158.865 94.3434 157.726 93.9055 156.358L78.189 115.576C77.844 114.935 77.6394 114.228 77.5888 113.501C77.5382 112.775 77.6427 112.046 77.8955 111.363C78.1482 110.681 78.5434 110.059 79.0547 109.541C79.5661 109.023 80.1819 108.619 80.8612 108.357C81.5405 108.095 82.2677 107.981 82.9947 108.022C83.7216 108.062 84.4315 108.257 85.0773 108.594C85.7231 108.93 86.2898 109.4 86.74 109.972C87.1902 110.544 87.5134 111.206 87.6883 111.913L103.393 152.695C103.986 154.004 104.037 155.495 103.534 156.841C103.032 158.188 102.018 159.281 100.712 159.883Z" fill="#1397D5"/>
<g opacity="0.15">
<path d="M3.80103 54.0039L10.261 133.188L105.346 188.08L120.369 121.631L3.80103 54.0039ZM41.3359 131.951C39.9628 132.377 38.4772 132.244 37.201 131.582C35.9249 130.921 34.9608 129.783 34.5177 128.415L18.8127 87.6328C18.4743 86.9931 18.2753 86.2889 18.229 85.5667C18.1826 84.8445 18.2899 84.1207 18.5437 83.443C18.7975 82.7653 19.1922 82.1492 19.7016 81.6351C20.211 81.1211 20.8236 80.7209 21.4989 80.461C22.1743 80.201 22.8971 80.0872 23.6197 80.1271C24.3423 80.1669 25.0482 80.3595 25.6909 80.6921C26.3336 81.0247 26.8985 81.4898 27.3483 82.0567C27.7981 82.6236 28.1226 83.2795 28.3004 83.981L44.017 124.752C44.6101 126.063 44.6611 127.555 44.159 128.903C43.6568 130.252 42.6421 131.347 41.3359 131.951ZM71.0241 145.911C69.6525 146.344 68.1655 146.216 66.8879 145.555C65.6104 144.895 64.6462 143.756 64.2058 142.387L48.5355 101.604C48.1905 100.963 47.9859 100.256 47.9353 99.5296C47.8847 98.8033 47.9892 98.0746 48.242 97.3918C48.4948 96.709 48.8899 96.0878 49.4013 95.5695C49.9126 95.0512 50.5284 94.6477 51.2077 94.3857C51.887 94.1237 52.6143 94.0093 53.3412 94.0501C54.0681 94.0908 54.7781 94.2858 55.4238 94.6221C56.0696 94.9584 56.6364 95.4283 57.0866 96.0005C57.5367 96.5727 57.86 97.2342 58.0348 97.941L73.7398 138.723C74.3302 140.037 74.3759 141.531 73.8669 142.878C73.3579 144.226 72.3356 145.316 71.0241 145.911ZM100.712 159.883C99.3422 160.315 97.8567 160.187 96.5811 159.526C95.3054 158.865 94.3434 157.726 93.9055 156.358L78.189 115.576C77.844 114.935 77.6394 114.228 77.5888 113.501C77.5382 112.775 77.6427 112.046 77.8955 111.363C78.1482 110.681 78.5434 110.059 79.0547 109.541C79.5661 109.023 80.1819 108.619 80.8612 108.357C81.5405 108.095 82.2677 107.981 82.9947 108.022C83.7216 108.062 84.4315 108.257 85.0773 108.594C85.7231 108.93 86.2898 109.4 86.74 109.972C87.1902 110.544 87.5134 111.206 87.6883 111.913L103.393 152.695C103.986 154.004 104.037 155.495 103.534 156.841C103.032 158.188 102.018 159.281 100.712 159.883Z" fill="black"/>
</g>
<path d="M120.358 121.632L185.42 84.0625L170.408 150.523L105.346 188.081L120.358 121.632Z" fill="#1397D5"/>
<path opacity="0.4" d="M120.358 121.632L185.42 84.0625L170.408 150.523L105.346 188.081L120.358 121.632Z" fill="black"/>
</svg>
